{
    "asset" : {
        "generator" : "Khronos glTF Blender I/O v1.7.33",
        "version" : "2.0"
    },
    "scene" : 0,
    "scenes" : [
        {
            "extras" : {
                "b_export" : 1,
                "export_path" : "C:\\Users\\flori\\3D Objects\\Mic\\VR_World\\Aframe_basic_room",
                "s_project_name" : "aframe-basic_room",
                "b_settings" : 0,
                "s_output" : "exporting..."
            },
            "name" : "Scene",
            "nodes" : [
                0
            ]
        }
    ],
    "nodes" : [
        {
            "mesh" : 0,
            "name" : "Button"
        }
    ],
    "materials" : [
        {
            "doubleSided" : true,
            "name" : "Button_material",
            "pbrMetallicRoughness" : {
                "baseColorFactor" : [
                    0.6460152864456177,
                    0.009875811636447906,
                    0.0039188191294670105,
                    1
                ],
                "metallicFactor" : 0,
                "roughnessFactor" : 0.23333331942558289
            }
        }
    ],
    "meshes" : [
        {
            "name" : "Cube.003",
            "primitives" : [
                {
                    "attributes" : {
                        "POSITION" : 0,
                        "NORMAL" : 1,
                        "TANGENT" : 2,
                        "TEXCOORD_0" : 3
                    },
                    "indices" : 4,
                    "material" : 0
                }
            ]
        }
    ],
    "accessors" : [
        {
            "bufferView" : 0,
            "componentType" : 5126,
            "count" : 96,
            "max" : [
                0.14004190266132355,
                0.33389487862586975,
                0.33389487862586975
            ],
            "min" : [
                -0.14004193246364594,
                -0.33389487862586975,
                -0.33389487862586975
            ],
            "type" : "VEC3"
        },
        {
            "bufferView" : 1,
            "componentType" : 5126,
            "count" : 96,
            "type" : "VEC3"
        },
        {
            "bufferView" : 2,
            "componentType" : 5126,
            "count" : 96,
            "type" : "VEC4"
        },
        {
            "bufferView" : 3,
            "componentType" : 5126,
            "count" : 96,
            "type" : "VEC2"
        },
        {
            "bufferView" : 4,
            "componentType" : 5123,
            "count" : 132,
            "type" : "SCALAR"
        }
    ],
    "bufferViews" : [
        {
            "buffer" : 0,
            "byteLength" : 1152,
            "byteOffset" : 0
        },
        {
            "buffer" : 0,
            "byteLength" : 1152,
            "byteOffset" : 1152
        },
        {
            "buffer" : 0,
            "byteLength" : 1536,
            "byteOffset" : 2304
        },
        {
            "buffer" : 0,
            "byteLength" : 768,
            "byteOffset" : 3840
        },
        {
            "buffer" : 0,
            "byteLength" : 264,
            "byteOffset" : 4608
        }
    ],
    "buffers" : [
        {
            "byteLength" : 4872,
            "uri" : "data:application/octet-stream;base64,"
        }
    ]
}
