{
    "asset" : {
        "generator" : "Khronos glTF Blender I/O v1.7.33",
        "version" : "2.0"
    },
    "scene" : 0,
    "scenes" : [
        {
            "extras" : {
                "b_export" : 1,
                "export_path" : "C:\\Users\\flori\\3D Objects\\Mic\\VR_World\\Aframe_basic_room",
                "s_project_name" : "aframe-basic_room",
                "b_settings" : 0,
                "s_output" : "exporting..."
            },
            "name" : "Scene",
            "nodes" : [
                0
            ]
        }
    ],
    "nodes" : [
        {
            "mesh" : 0,
            "name" : "Cable"
        }
    ],
    "materials" : [
        {
            "doubleSided" : true,
            "name" : "Cable_material",
            "pbrMetallicRoughness" : {
                "baseColorFactor" : [
                    0,
                    0,
                    0,
                    1
                ],
                "metallicFactor" : 0,
                "roughnessFactor" : 0.7575757503509521
            }
        }
    ],
    "meshes" : [
        {
            "name" : "BezierCurve",
            "primitives" : [
                {
                    "attributes" : {
                        "POSITION" : 0,
                        "NORMAL" : 1,
                        "TANGENT" : 2,
                        "TEXCOORD_0" : 3
                    },
                    "indices" : 4,
                    "material" : 0
                }
            ]
        }
    ],
    "accessors" : [
        {
            "bufferView" : 0,
            "componentType" : 5126,
            "count" : 145,
            "max" : [
                0.7083585262298584,
                1.696815013885498,
                3.1727402210235596
            ],
            "min" : [
                -1.825026512145996,
                -1.8462954759597778,
                -1.0753391981124878
            ],
            "type" : "VEC3"
        },
        {
            "bufferView" : 1,
            "componentType" : 5126,
            "count" : 145,
            "type" : "VEC3"
        },
        {
            "bufferView" : 2,
            "componentType" : 5126,
            "count" : 145,
            "type" : "VEC4"
        },
        {
            "bufferView" : 3,
            "componentType" : 5126,
            "count" : 145,
            "type" : "VEC2"
        },
        {
            "bufferView" : 4,
            "componentType" : 5123,
            "count" : 672,
            "type" : "SCALAR"
        }
    ],
    "bufferViews" : [
        {
            "buffer" : 0,
            "byteLength" : 1740,
            "byteOffset" : 0
        },
        {
            "buffer" : 0,
            "byteLength" : 1740,
            "byteOffset" : 1740
        },
        {
            "buffer" : 0,
            "byteLength" : 2320,
            "byteOffset" : 3480
        },
        {
            "buffer" : 0,
            "byteLength" : 1160,
            "byteOffset" : 5800
        },
        {
            "buffer" : 0,
            "byteLength" : 1344,
            "byteOffset" : 6960
        }
    ],
    "buffers" : [
        {
            "byteLength" : 8304,
            "uri" : "data:application/octet-stream;base64,"
        }
    ]
}
